<?xml version="1.0" encoding="UTF-8"?> <svg xmlns="http://www.w3.org/2000/svg" xmlns:xlink="http://www.w3.org/1999/xlink" version="1.1" id="Layer_1" x="0px" y="0px" viewBox="0 0 211.5 58.4" style="enable-background:new 0 0 211.5 58.4;" xml:space="preserve"> <style type="text/css"> .st0{fill-rule:evenodd;clip-rule:evenodd;fill:#FFFFFF;} .st1{fill:#FFFFFF;} </style> <g> <g> <path class="st0" d="M46.1,16.6c-1.5,2.5-3.7,4.3-5.7,6.2c-1.4,1.4-3.4,2.6-4.1,4.6c-0.7,2.3-0.2,5.5-0.2,8 c0,5.4,0.7,10.3,1.6,15.4c0.2,1.3,0.4,2.5,0.6,3.8c0.2,1.1,0.7,2.6,0.5,3.7c-1.8,0.8-2.8-3.8-3.2-5c-0.8-2.2-1.5-4.5-2.4-6.7 c-0.8-2-1.8-3.9-2.4-5.9c-0.2-0.6-0.3-1.1-0.4-1.7c-0.3,2.4-1.6,5.4-2.5,7.6c-0.9,2.2-1.6,4.5-2.4,6.7c-0.4,1.2-1.4,5.8-3.2,5 c-0.2-1.1,0.3-2.6,0.5-3.7c0.2-1.3,0.4-2.5,0.6-3.8c0.8-5.1,1.6-10,1.6-15.4c0-2.5,0.5-5.7-0.2-8c-0.6-2-2.6-3.2-4.1-4.6 c-2-2-4.3-3.8-5.7-6.2c-0.6-1-1.5-2.8-1.2-4.1c0.3-1.3,2.6-0.4,3.2,0.5c0.6,0.9,1.1,1.9,1.8,2.8c1.3,1.5,3,2.9,4.8,4 c0.8,0.5,1.9,1.2,2.9,1.5c0.5,0.2,1.6,0.3,2.5,0.4c0.1-0.4,0.2-0.8,0.2-1.3c-2.2-0.6-3.7-2.6-3.7-4.9c0-2.8,2.3-5.1,5.1-5.1 c2.8,0,5.1,2.3,5.1,5.1c0,2.3-1.6,4.3-3.7,4.9c0,0.5,0.1,0.9,0.2,1.3c0.9,0,2-0.1,2.5-0.3c1-0.4,2-1.1,2.9-1.5 c1.8-1,3.4-2.4,4.8-4c0.7-0.8,1.2-1.8,1.8-2.8c0.6-0.9,2.9-1.8,3.2-0.5C47.6,13.8,46.7,15.6,46.1,16.6z"></path> <path class="st0" d="M21.5,31c-1,1.6-2.5,2.8-3.8,4.1c-0.9,0.9-2.2,1.7-2.7,3c-0.5,1.5-0.2,3.6-0.2,5.2c0,3.5,0.5,6.8,1,10.1 c0.1,0.8,0.3,1.6,0.4,2.5c0.1,0.7,0.4,1.7,0.3,2.5c-1.2,0.5-1.8-2.5-2.1-3.3c-0.5-1.5-1-2.9-1.5-4.4c-0.5-1.3-1.2-2.5-1.6-3.9 c-0.1-0.4-0.2-0.7-0.2-1.1c-0.2,1.6-1.1,3.5-1.7,5c-0.6,1.5-1,2.9-1.5,4.4c-0.3,0.8-0.9,3.8-2.1,3.3c-0.1-0.7,0.2-1.7,0.3-2.5 c0.1-0.8,0.3-1.6,0.4-2.5c0.5-3.3,1-6.6,1-10.1c0-1.6,0.3-3.7-0.2-5.2c-0.4-1.3-1.7-2.1-2.7-3C3.5,33.8,2,32.6,1.1,31 c-0.4-0.7-1-1.8-0.8-2.7C0.5,27.4,2,28,2.4,28.6c0.4,0.6,0.7,1.3,1.2,1.8c0.9,1,1.9,1.9,3.1,2.6c0.6,0.3,1.2,0.8,1.9,1 c0.3,0.1,1.1,0.2,1.7,0.2c0.1-0.3,0.1-0.6,0.1-0.9C9,33,7.9,31.7,7.9,30.2c0-1.8,1.5-3.3,3.3-3.3c1.8,0,3.3,1.5,3.3,3.3 c0,1.5-1,2.8-2.5,3.2c0,0.3,0.1,0.6,0.1,0.9c0.6,0,1.3-0.1,1.7-0.2c0.6-0.2,1.3-0.7,1.9-1c1.2-0.7,2.3-1.6,3.1-2.6 c0.5-0.5,0.8-1.2,1.2-1.8c0.4-0.6,1.9-1.2,2.1-0.3C22.4,29.1,21.9,30.3,21.5,31z"></path> <path class="st0" d="M55.5,36.4c-0.8,1.3-2,2.2-3,3.3c-0.8,0.7-1.8,1.3-2.1,2.4c-0.4,1.2-0.1,2.9-0.1,4.2c0,2.8,0.4,5.4,0.8,8.1 c0.1,0.7,0.2,1.3,0.3,2c0.1,0.6,0.4,1.4,0.3,2c-0.9,0.4-1.5-2-1.7-2.6c-0.4-1.2-0.8-2.4-1.2-3.5c-0.4-1-0.9-2-1.3-3.1 c-0.1-0.3-0.2-0.6-0.2-0.9c-0.2,1.3-0.9,2.8-1.3,4c-0.5,1.2-0.8,2.3-1.2,3.5c-0.2,0.6-0.7,3-1.7,2.6c-0.1-0.6,0.2-1.4,0.3-2 c0.1-0.7,0.2-1.3,0.3-2c0.4-2.7,0.8-5.3,0.8-8.1c0-1.3,0.3-3-0.1-4.2c-0.3-1.1-1.4-1.7-2.1-2.4c-1.1-1-2.3-2-3-3.3 c-0.3-0.6-0.8-1.5-0.6-2.1c0.2-0.7,1.4-0.2,1.7,0.2c0.3,0.5,0.6,1,0.9,1.5c0.7,0.8,1.6,1.5,2.5,2.1c0.4,0.3,1,0.6,1.5,0.8 c0.3,0.1,0.8,0.2,1.3,0.2c0.1-0.2,0.1-0.4,0.1-0.7c-1.1-0.3-1.9-1.3-1.9-2.6c0-1.5,1.2-2.7,2.7-2.7c1.5,0,2.7,1.2,2.7,2.7 c0,1.2-0.8,2.3-1.9,2.6c0,0.2,0.1,0.5,0.1,0.7h0c0.5,0,1-0.1,1.3-0.2c0.5-0.2,1.1-0.6,1.5-0.8c0.9-0.6,1.8-1.3,2.5-2.1 c0.4-0.4,0.6-1,0.9-1.5c0.3-0.5,1.5-0.9,1.7-0.2C56.3,35,55.8,35.9,55.5,36.4z"></path> <g> <path class="st0" d="M10.3,22.2c0.4-0.5,0.8-0.9,1.1-1.4c0.3-0.5,0.6-1,0.8-1.5c0,1.1-1.7,3.4-2.6,3.9c-0.1-0.4-0.3-0.7-0.1-1.1 c0.3-1,0-1.8-0.8-2.4c-0.5-0.3-1-0.6-1.6-0.9c0.2,0.9,0.3,1.7,0.4,2.5c0.1,0.6,0.7,1.1,1.5,1.1c-0.3-0.7-0.5-1.4-0.8-2.2 c0.5,0.6,0.8,1.3,1,2c0.1,0.3,0.1,0.7,0.2,1c0,0.3,0.2,0.4,0.4,0.2c0.6-0.7,1.5-1,2.3-1.5c0.6-0.3,0.9-0.8,1.1-1.4 c0.3-1,0.2-2.8-0.4-3.8c-0.3,1.2-1.3,1.9-2.1,2.7c-0.8,0.7-0.9,1.5-0.5,2.5C10.1,21.9,10.1,22,10.3,22.2z"></path> <path class="st0" d="M0.4,18.1c0.3,1.1,1.1,1.7,1.9,2.3c0.3,0.2,0.6,0.4,0.9,0.7c0.9,0.8,1.1,1.9,0.3,3c-1-0.8-1.7-1.8-2.3-2.9 c0.6,1.8,1.9,3,3.4,4.1c0,0-0.1,0.1-0.1,0.1C4.3,25.3,4.1,25.2,4,25c-0.4-0.4-0.8-0.6-1.3-0.7c-1.8-0.5-2.7-1.9-2.6-4 c0-0.7,0.2-1.4,0.2-2.2C0.3,18.1,0.3,18.1,0.4,18.1z"></path> <path class="st0" d="M44.1,23.7c0,0.9-0.5,1.6-1.1,2.3c-0.2,0.2-0.4,0.5-0.6,0.7c-0.6,0.8-0.5,1.8,0.4,2.5c0.7-0.9,1-1.9,1.3-2.9 c-0.1,1.6-0.9,2.9-1.9,4.1c0,0,0.1,0.1,0.1,0.1c0.1-0.1,0.2-0.2,0.3-0.4c0.2-0.4,0.5-0.7,0.9-0.9c1.3-0.8,1.8-2.2,1.3-3.9 c-0.2-0.6-0.4-1.1-0.7-1.7C44.1,23.7,44.1,23.7,44.1,23.7z"></path> <g> <path class="st0" d="M53.2,29.9c-0.2-0.1-0.4-0.1-0.5-0.2c-0.9-0.6-1.9-1-3-1c0.4,0.1,0.8,0.2,1.2,0.3c0.4,0.1,0.7,0.3,1.1,0.5 c-0.7,0.6-1.3,0.7-2,0.3c-0.4-0.2-0.8-0.5-1.2-0.8c-0.3-0.2-0.6-0.2-0.9-0.3c1-1.2,3.2-1.1,4.1,0.2c0.2,0.3,0.5,0.5,0.9,0.7 c0.1-1.8-0.3-3.4-1.3-4.9c0.5,1.1,1,2.3,1,3.5c-1-0.1-1.8-0.8-1.9-1.7c-0.1-0.6,0-1.1-0.1-1.7c-0.1-0.7-0.3-1.3-0.4-1.9 c1.4,0.2,3.1,1.7,3.3,3.1c0.1,0.6-0.2,1.3-0.2,1.9C53.2,28.6,53.2,29.2,53.2,29.9z"></path> <path class="st0" d="M53.7,29.3c-0.2-0.6,0-1,0.4-1.3c0.4-0.3,0.9-0.6,1.4-0.8c0.3,1.3-0.4,2.4-1.6,2.3c0.3-0.3,0.6-0.6,0.9-0.8 c0,0-0.1-0.1-0.1-0.1C54.3,28.8,54,29,53.7,29.3z"></path> </g> </g> <g> <path class="st0" d="M23.1,4c0,0.2,0,0.4-0.1,0.6c-0.1,0.2-0.2,0.4-0.3,0.5c-0.1,0.2-0.3,0.4-0.4,0.7c-0.1,0.1-0.1,0.3-0.2,0.4 c0,0-0.1,0.1-0.1,0c-0.3-0.2-0.6-0.4-0.9-0.5c-0.2-0.1-0.4-0.2-0.6-0.3c-0.2-0.1-0.3-0.2-0.4-0.3C20.1,5,20,4.9,20,4.8 c0,0,0,0,0,0c0-0.1,0-0.1-0.1-0.2c0,0,0-0.1,0-0.1c0-0.3,0.1-0.6,0.4-0.8c0,0,0.1-0.1,0.2-0.1c0.1,0,0.1,0,0.2-0.1 c0.1,0,0.1,0,0.2,0c0.2,0,0.4,0.1,0.5,0.2c0,0,0,0,0,0c0,0,0,0,0,0c0.1-0.3,0.2-0.4,0.5-0.5c0,0,0,0,0,0c0.1,0,0.1,0,0.2-0.1 c0,0,0.1,0,0.1,0c0.3,0,0.6,0.1,0.8,0.4c0,0,0.1,0.1,0.1,0.2c0,0.1,0,0.1,0.1,0.2C23.1,3.9,23.1,3.9,23.1,4z"></path> </g> <g> <path class="st0" d="M18.2,8.7c0,0.2,0,0.4-0.1,0.6c-0.1,0.2-0.2,0.4-0.3,0.5c-0.1,0.2-0.3,0.4-0.4,0.7c-0.1,0.1-0.1,0.3-0.2,0.4 c0,0-0.1,0.1-0.1,0c-0.3-0.2-0.6-0.4-0.9-0.5c-0.2-0.1-0.4-0.2-0.6-0.3c-0.2-0.1-0.3-0.2-0.4-0.3c-0.1-0.1-0.1-0.2-0.2-0.3 c0,0,0,0,0,0c0-0.1,0-0.1-0.1-0.2c0,0,0-0.1,0-0.1c0-0.3,0.1-0.6,0.4-0.8c0,0,0.1-0.1,0.2-0.1c0.1,0,0.1,0,0.2-0.1 c0.1,0,0.1,0,0.2,0c0.2,0,0.4,0.1,0.5,0.2c0,0,0,0,0,0c0,0,0,0,0,0C16.6,8.2,16.8,8,17,7.9c0,0,0,0,0,0c0.1,0,0.1,0,0.2-0.1 c0,0,0.1,0,0.1,0c0.3,0,0.6,0.1,0.8,0.4c0,0,0.1,0.1,0.1,0.2c0,0.1,0,0.1,0.1,0.2C18.2,8.6,18.2,8.6,18.2,8.7z"></path> </g> <g> <path class="st0" d="M43.7,4.3c0-0.1,0-0.1,0.1-0.2c0-0.1,0.1-0.1,0.1-0.2c0.2-0.3,0.4-0.4,0.8-0.4c0,0,0.1,0,0.1,0 c0.1,0,0.1,0,0.2,0.1c0,0,0,0,0,0c0.2,0.1,0.4,0.3,0.5,0.5c0,0,0,0,0,0c0,0,0,0,0,0C45.6,4,45.8,4,45.9,4c0.1,0,0.1,0,0.2,0 c0.1,0,0.1,0,0.2,0.1c0.1,0,0.1,0.1,0.2,0.1c0.3,0.2,0.4,0.5,0.4,0.8c0,0,0,0.1,0,0.1c0,0.1,0,0.1-0.1,0.2c0,0,0,0,0,0 c0,0.1-0.1,0.2-0.2,0.3c-0.1,0.1-0.3,0.3-0.4,0.3C46,5.9,45.8,6,45.6,6.1c-0.3,0.1-0.6,0.3-0.9,0.5c0,0-0.1,0-0.1,0 c-0.1-0.1-0.1-0.3-0.2-0.4c-0.1-0.2-0.2-0.5-0.4-0.7C44,5.4,43.9,5.2,43.8,5c-0.1-0.2-0.1-0.4-0.1-0.6 C43.7,4.4,43.7,4.3,43.7,4.3z"></path> </g> <g> <path class="st0" d="M27.6,2.1c0-0.1,0-0.3,0-0.4c0-0.1,0-0.3,0.1-0.4C27.9,0.6,28.3,0.2,29,0c0.1,0,0.2,0,0.3-0.1 c0.1,0,0.2,0,0.4,0c0,0,0,0,0,0c0.6,0.1,1,0.3,1.3,0.8c0,0,0,0,0,0c0,0,0,0,0-0.1c0.2-0.3,0.5-0.6,0.9-0.7C32.1,0,32.2,0,32.4,0 c0.1,0,0.2,0,0.4,0c0.1,0,0.3,0,0.4,0.1c0.7,0.2,1.1,0.7,1.2,1.3c0,0.1,0,0.2,0,0.2c0,0.1,0,0.3,0,0.4c0,0,0,0,0,0 c0,0.2-0.1,0.4-0.2,0.6c-0.1,0.4-0.4,0.7-0.6,1c-0.3,0.4-0.7,0.7-1,1c-0.5,0.5-1.1,1-1.5,1.6c-0.1,0.1-0.2,0.1-0.2,0 c-0.2-0.2-0.4-0.5-0.6-0.7c-0.4-0.4-0.8-0.8-1.2-1.1c-0.3-0.3-0.7-0.6-0.9-0.9c-0.3-0.3-0.5-0.7-0.6-1.1 C27.6,2.3,27.6,2.2,27.6,2.1z"></path> </g> <g> <path class="st0" d="M37.4,7.3c0-0.1,0-0.1,0.1-0.2c0-0.1,0.1-0.1,0.1-0.2c0.2-0.3,0.4-0.4,0.8-0.4c0,0,0.1,0,0.1,0 c0.1,0,0.1,0,0.2,0.1c0,0,0,0,0,0c0.2,0.1,0.4,0.3,0.5,0.5c0,0,0,0,0,0c0,0,0,0,0,0C39.3,7,39.5,7,39.7,7c0.1,0,0.1,0,0.2,0 C39.9,7,40,7,40.1,7c0.1,0,0.1,0.1,0.2,0.1c0.3,0.2,0.4,0.5,0.4,0.8c0,0,0,0.1,0,0.1c0,0.1,0,0.1-0.1,0.2c0,0,0,0,0,0 c0,0.1-0.1,0.2-0.2,0.3c-0.1,0.1-0.3,0.3-0.4,0.3C39.7,9,39.5,9,39.3,9.1c-0.3,0.1-0.6,0.3-0.9,0.5c0,0-0.1,0-0.1,0 c-0.1-0.1-0.1-0.3-0.2-0.4c-0.1-0.2-0.2-0.5-0.4-0.7c-0.1-0.2-0.2-0.4-0.3-0.5c-0.1-0.2-0.1-0.4-0.1-0.6 C37.4,7.4,37.4,7.3,37.4,7.3z"></path> </g> </g> <g> <g> <path class="st1" d="M64.8,2.9h3.8v18h9.1v3.4H64.8V2.9z"></path> <path class="st1" d="M79.8,17c0-1.1,0.2-2.2,0.6-3.1c0.4-0.9,1-1.7,1.7-2.4c0.7-0.7,1.5-1.2,2.5-1.5c1-0.4,2-0.5,3.1-0.5 c1.1,0,2.1,0.2,3.1,0.5c1,0.4,1.8,0.9,2.5,1.5c0.7,0.7,1.3,1.5,1.7,2.4c0.4,0.9,0.6,2,0.6,3.1s-0.2,2.2-0.6,3.1 c-0.4,0.9-1,1.7-1.7,2.4c-0.7,0.7-1.5,1.2-2.5,1.5c-1,0.4-2,0.5-3.1,0.5c-1.1,0-2.1-0.2-3.1-0.5c-1-0.4-1.8-0.9-2.5-1.5 c-0.7-0.7-1.3-1.5-1.7-2.4C80,19.2,79.8,18.2,79.8,17z M83.4,17c0,0.6,0.1,1.1,0.3,1.6c0.2,0.5,0.5,1,0.8,1.4 c0.4,0.4,0.8,0.7,1.3,1c0.5,0.2,1.1,0.4,1.8,0.4c0.7,0,1.3-0.1,1.8-0.4c0.5-0.2,1-0.6,1.3-1c0.4-0.4,0.7-0.9,0.8-1.4 c0.2-0.5,0.3-1.1,0.3-1.6c0-0.6-0.1-1.1-0.3-1.6c-0.2-0.5-0.5-1-0.8-1.4c-0.4-0.4-0.8-0.7-1.3-1c-0.5-0.2-1.1-0.4-1.8-0.4 c-0.7,0-1.3,0.1-1.8,0.4c-0.5,0.2-1,0.6-1.3,1c-0.4,0.4-0.7,0.9-0.8,1.4C83.5,15.9,83.4,16.5,83.4,17z"></path> <path class="st1" d="M96.1,9.8h4l3.9,10.2h0.1l3.9-10.2h3.7l-5.7,14.5H102L96.1,9.8z"></path> <path class="st1" d="M115.7,18.3c0.1,1.1,0.5,1.9,1.3,2.5c0.7,0.6,1.6,0.9,2.6,0.9c0.9,0,1.7-0.2,2.3-0.6 c0.6-0.4,1.2-0.8,1.6-1.4l2.6,2c-0.8,1-1.8,1.8-2.8,2.2c-1,0.4-2.1,0.7-3.3,0.7c-1.1,0-2.1-0.2-3.1-0.5c-1-0.4-1.8-0.9-2.5-1.5 c-0.7-0.7-1.3-1.5-1.7-2.4c-0.4-0.9-0.6-2-0.6-3.1s0.2-2.2,0.6-3.1c0.4-0.9,1-1.7,1.7-2.4s1.5-1.2,2.5-1.5c1-0.4,2-0.5,3.1-0.5 c1,0,1.9,0.2,2.8,0.5c0.8,0.4,1.6,0.9,2.1,1.5c0.6,0.7,1.1,1.5,1.4,2.5c0.3,1,0.5,2.1,0.5,3.4v1H115.7z M123.1,15.6 c0-1.1-0.4-1.9-1-2.5c-0.6-0.6-1.5-0.9-2.7-0.9c-1.1,0-1.9,0.3-2.6,0.9c-0.6,0.6-1,1.5-1.2,2.5H123.1z"></path> <path class="st1" d="M142.9,15.1l-8-12.2h4.8l5.3,8.5l5.3-8.5h4.5l-8,12.2v9.2h-3.8V15.1z"></path> <path class="st1" d="M151.3,17c0-1.1,0.2-2.2,0.6-3.1c0.4-0.9,1-1.7,1.7-2.4c0.7-0.7,1.5-1.2,2.5-1.5c1-0.4,2-0.5,3.1-0.5 s2.1,0.2,3.1,0.5c1,0.4,1.8,0.9,2.5,1.5c0.7,0.7,1.3,1.5,1.7,2.4c0.4,0.9,0.6,2,0.6,3.1s-0.2,2.2-0.6,3.1c-0.4,0.9-1,1.7-1.7,2.4 c-0.7,0.7-1.5,1.2-2.5,1.5c-1,0.4-2,0.5-3.1,0.5s-2.1-0.2-3.1-0.5c-1-0.4-1.8-0.9-2.5-1.5c-0.7-0.7-1.3-1.5-1.7-2.4 C151.5,19.2,151.3,18.2,151.3,17z M154.9,17c0,0.6,0.1,1.1,0.3,1.6c0.2,0.5,0.5,1,0.8,1.4c0.4,0.4,0.8,0.7,1.3,1 c0.5,0.2,1.1,0.4,1.8,0.4s1.3-0.1,1.8-0.4c0.5-0.2,1-0.6,1.3-1c0.4-0.4,0.7-0.9,0.8-1.4c0.2-0.5,0.3-1.1,0.3-1.6 c0-0.6-0.1-1.1-0.3-1.6c-0.2-0.5-0.5-1-0.8-1.4c-0.4-0.4-0.8-0.7-1.3-1c-0.5-0.2-1.1-0.4-1.8-0.4s-1.3,0.1-1.8,0.4 c-0.5,0.2-1,0.6-1.3,1c-0.4,0.4-0.7,0.9-0.8,1.4C155,15.9,154.9,16.5,154.9,17z"></path> <path class="st1" d="M182.2,24.3h-3.4V22h-0.1c-0.3,0.7-0.9,1.4-1.6,1.9s-1.7,0.8-2.9,0.8c-1,0-1.8-0.2-2.5-0.5 c-0.7-0.3-1.2-0.7-1.6-1.3c-0.4-0.5-0.7-1.1-0.9-1.8c-0.2-0.7-0.3-1.4-0.3-2.1V9.8h3.6v7.3c0,0.4,0,0.9,0.1,1.3 c0,0.5,0.1,1,0.3,1.4c0.2,0.4,0.4,0.8,0.8,1.1c0.4,0.3,0.9,0.4,1.5,0.4c0.6,0,1.1-0.1,1.5-0.3c0.4-0.2,0.8-0.5,1-0.8 c0.3-0.3,0.5-0.7,0.6-1.2c0.1-0.4,0.2-0.9,0.2-1.4V9.8h3.6V24.3z"></path> <path class="st1" d="M185.4,9.8h3.6v2.3h0.1c0.4-0.8,1-1.5,1.7-2c0.7-0.5,1.6-0.7,2.6-0.7c0.2,0,0.4,0,0.6,0.1 c0.2,0,0.4,0.1,0.7,0.2v3.5c-0.3-0.1-0.6-0.1-0.9-0.2c-0.3-0.1-0.6-0.1-0.9-0.1c-0.8,0-1.5,0.2-2,0.5c-0.5,0.3-0.9,0.7-1.2,1.1 c-0.3,0.4-0.5,0.8-0.5,1.2c-0.1,0.4-0.1,0.7-0.1,0.9v7.8h-3.6V9.8z"></path> </g> <path class="st1" d="M176.6,52.4c2.6,0,4.1-2.1,4.1-4.3c0-2.3-1.6-4.4-4.1-4.4s-4.1,2.1-4.1,4.4C172.4,50.3,174,52.4,176.6,52.4 M176.6,40.4c4.3,0,7.7,3.1,7.7,7.6c0,4.6-3.4,7.6-7.7,7.6s-7.7-3.1-7.7-7.6C168.9,43.5,172.3,40.4,176.6,40.4"></path> <path class="st1" d="M204,52.4c-2.6,0-4.1-2.1-4.1-4.3c0-2.3,1.6-4.4,4.1-4.4c2.6,0,4.1,2.1,4.1,4.4 C208.1,50.3,206.6,52.4,204,52.4 M211.6,34.5c0-1.1-0.9-2-2-2l-1.5,0v10.2h-0.1c-0.7-0.9-2.1-2.2-4.8-2.2c-4,0-6.8,3.3-6.8,7.6 c0,4.3,2.6,7.6,7,7.6c2,0,3.8-0.8,4.9-2.5h0.1v2.2h3.4L211.6,34.5z"></path> <path class="st1" d="M194.1,40.4c-1.9,0-3.4,1-4.2,2.7h-0.1v-2.3h-3.5v14.5h1.6c1.1,0,2-0.9,2-2v-0.9h0v-4.8 c0-0.8,0.5-3.7,3.8-3.7c0.6,0,1.1,0.1,1.7,0.3v-3.5C194.9,40.5,194.5,40.4,194.1,40.4"></path> <path class="st1" d="M140,40.4c-2.1,0-3.6,0.8-4.6,2.7c-0.7-1.8-2.2-2.7-4.4-2.7c-2.4,0-3.7,1.3-4.3,2.6h-0.1v-2.3h-3.4v14.5h3.5 v-7.9c0-1.9,0.9-3.7,3.2-3.7c1.7,0,2.4,1.2,2.4,3v8.6h3.5v-7.9c0-1.9,0.8-3.7,3-3.7c2.1,0,2.6,1.6,2.6,3.4v6.2c0,1.1,0.9,2,2,2 h1.5v-8.6C145.1,43.2,143.7,40.4,140,40.4"></path> <path class="st1" d="M92.3,40.4c-2.2,0-3.6,1.2-4.1,2.4h-0.1v-8.4c0-1.1-0.9-2-2-2l-1.6,0v22.8h3.5v-7.9c0-1.9,0.9-3.7,3.2-3.7 c2.5,0,2.6,2.7,2.6,4.3l0,5.3c0,1.1,0.9,2,2,2h1.5v-9.2C97.4,43.2,96.1,40.4,92.3,40.4"></path> <path class="st1" d="M119.7,34.9v-0.5c0-1.1-0.9-2-2-2h-1.5v22.8h3.5L119.7,34.9L119.7,34.9z"></path> <path class="st1" d="M106.7,43.1c2.2,0,3.6,1.3,3.6,3.4H103C103.3,44.5,104.6,43.1,106.7,43.1 M112.2,52c-0.9-0.7-1.9-0.6-2.8,0 c-0.3,0.2-1.5,0.8-2.6,0.8c-2,0-3.6-1.3-3.8-3.4h10.8v-1c0-5-2.7-7.9-6.6-7.9c-4.3,0-7.7,3.1-7.7,7.6s3.4,7.6,7.7,7.6 c2.2,0,4.3-0.8,5.9-2.9L112.2,52z"></path> <path class="st1" d="M80.8,51.1c-1-0.8-1.9-0.6-2.8,0c-0.1,0.1-0.2,0.2-0.4,0.2c-0.5,0.4-2.1,1.1-3.2,1.1c-4.3,0-7.1-3.4-7.1-7.9 c0-4.3,2.9-7.6,7.1-7.6c1.4,0,2.9,0.5,4.4,2.1l2.9-2.2c-2.1-2.4-4.5-3.4-7.3-3.4c-6.4,0-11,4.5-11,11.3c0,6.7,4.6,11.2,11,11.2 c3,0,5.9-1.1,7.7-3.8L80.8,51.1z"></path> <path class="st1" d="M165.4,43.9h0.4c1.1,0,2-0.9,2-2v-1h-3.5v-2.6c0-1.6,0.3-3,2.3-3c0.5,0,1,0.1,1.5,0.2l0.2-3.1 c-0.7-0.2-1.5-0.2-2.2-0.2c-4.4,0-5.3,2.6-5.3,6.6v16.6h3.5V43.9L165.4,43.9L165.4,43.9z"></path> <path class="st1" d="M152.4,46.3c-0.4-0.1-0.7-0.2-1-0.4c-0.4-0.2-0.7-0.5-0.7-1v0c0,0,0,0,0,0c0,0,0,0,0-0.1c0-0.1,0-0.1,0-0.2 c0-0.1,0-0.1,0-0.2c0,0,0-0.1,0-0.1c0,0,0-0.1,0.1-0.1c0,0,0,0,0,0c0.2-0.3,0.5-0.5,0.8-0.6c0,0,0,0,0,0c0.1,0,0.2-0.1,0.3-0.1 c0.1,0,0.2,0,0.3-0.1c0,0,0,0,0.1,0c0.1,0,0.1,0,0.2,0c0,0,0,0,0,0c0.1,0,0.1,0,0.2,0c0,0,0,0,0,0c0.4,0,0.8,0.1,1.1,0.2 c0.1,0,0.2,0.1,0.3,0.1c0.9,0.4,1.9,0.6,2.6,0l1.1-1.2c-1.4-1.4-3.2-2-5.1-2c-2.9,0-5.7,1.5-5.7,4.7c0,5.5,7.6,3.2,7.6,6.2 c0,1.1-1.3,1.7-2.4,1.7c-1.5,0-2.4-0.8-3.4-1.8l-2.4,2.3c1.4,1.7,3.3,2.2,5.5,2.2c2.9,0,6.1-1.2,6.1-4.7 C158.3,47.1,154.7,46.9,152.4,46.3"></path> </g> </g> </svg> 